<svg width="272" height="68" viewBox="0 0 272 68" fill="none" xmlns="http://www.w3.org/2000/svg">
<mask id="mask0_453_253" style="mask-type:luminance" maskUnits="userSpaceOnUse" x="0" y="0" width="67" height="68">
<path d="M66.7816 0H0V68H66.7816V0Z" fill="white"/>
</mask>
<g mask="url(#mask0_453_253)">
<path d="M22.3745 24.7505L15.6901 1.17856L34.3761 16.7579L22.3745 24.7505Z" fill="#C0C0C0"/>
<path d="M50.24 31.05L66.8228 43.9247L45.1955 43.0439L50.24 31.05Z" fill="#C0C0C0"/>
<path d="M33.2779 57.43L29.2746 42.8159L28.6996 40.7167L26.481 40.596L10.3492 39.7183L50.3369 14.5769L33.2779 57.43Z" fill="#1CB08F"/>
<path d="M33.8114 47.8752L44.0848 22.0681L19.9121 37.2661L31.0716 37.8733L33.8114 47.8752ZM32.7515 67.0006L26.3347 43.5757L0.793138 42.1861L56.5964 7.10114L32.7515 67.0006Z" fill="#1CB08F"/>
</g>
<mask id="mask1_453_253" style="mask-type:luminance" maskUnits="userSpaceOnUse" x="73" y="5" width="199" height="57">
<path d="M272 5.83838H73.29V61.4435H272V5.83838Z" fill="white"/>
</mask>
<g mask="url(#mask1_453_253)">
<path d="M84.4229 40.8669C83.3637 40.9106 82.3066 40.7397 81.3175 40.365C80.3283 39.9902 79.4281 39.4195 78.6729 38.6884C77.9304 37.9229 77.3534 37.0177 76.9764 36.0272C76.5995 35.0368 76.4305 33.9816 76.4796 32.9253V16.3179C76.4305 15.2615 76.5995 14.2064 76.9764 13.2159C77.3534 12.2255 77.9304 11.3202 78.6729 10.5547C79.4281 9.82363 80.3283 9.25297 81.3175 8.8782C82.3066 8.50343 83.3637 8.33257 84.4229 8.37623C85.4927 8.33118 86.5606 8.50116 87.5612 8.87575C88.5618 9.25033 89.4741 9.82165 90.2421 10.5547C90.9914 11.3166 91.5745 12.2206 91.9557 13.2116C92.337 14.2026 92.5084 15.2596 92.4594 16.3179V32.9253C92.5032 33.9789 92.3293 35.0304 91.9482 36.0162C91.5672 37.002 90.9868 37.9018 90.2421 38.6612C89.478 39.4013 88.567 39.979 87.5659 40.3585C86.5648 40.7379 85.495 40.911 84.4229 40.8669ZM84.4229 38.0533C85.0638 38.0774 85.7025 37.9663 86.296 37.7276C86.8896 37.4889 87.4242 37.128 87.8639 36.6693C88.759 35.6964 89.23 34.4173 89.1756 33.1069V16.1782C89.2343 14.8529 88.7615 13.5579 87.8589 12.5713C87.4191 12.1126 86.8845 11.7518 86.291 11.5131C85.6975 11.2743 85.0588 11.1633 84.4179 11.1874C83.7875 11.1649 83.1596 11.277 82.5775 11.5159C81.9954 11.7548 81.473 12.1149 81.0461 12.5713C80.1576 13.5647 79.6944 14.8571 79.7533 16.1782V33.1069C79.7014 34.4145 80.1665 35.6911 81.0512 36.6693C81.478 37.1258 82.0004 37.4858 82.5825 37.7248C83.1646 37.9637 83.7925 38.0758 84.4229 38.0533ZM110.933 40.8669C109.857 40.9069 108.785 40.712 107.795 40.2962C106.805 39.8804 105.921 39.2541 105.207 38.4623C103.698 36.688 102.923 34.4216 103.035 32.1122V9.19425C103.026 9.13268 103.032 9.06994 103.052 9.01098C103.072 8.95202 103.106 8.89845 103.151 8.85448C103.196 8.81052 103.25 8.77737 103.31 8.75763C103.37 8.7379 103.434 8.73212 103.497 8.74076H105.852C105.915 8.73212 105.979 8.7379 106.039 8.75763C106.099 8.77737 106.153 8.81052 106.198 8.85448C106.243 8.89845 106.276 8.95202 106.297 9.01098C106.317 9.06994 106.323 9.13268 106.314 9.19425V32.4718C106.245 33.9222 106.694 35.3507 107.584 36.5099C107.98 37.0074 108.489 37.4063 109.071 37.6744C109.653 37.9425 110.291 38.0723 110.933 38.0533C111.585 38.074 112.234 37.9454 112.827 37.6775C113.42 37.4097 113.941 37.01 114.35 36.5099C115.254 35.3567 115.712 33.9258 115.643 32.4718V9.19425C115.634 9.13268 115.64 9.06994 115.66 9.01098C115.68 8.95202 115.714 8.89845 115.759 8.85448C115.804 8.81052 115.858 8.77737 115.918 8.75763C115.978 8.7379 116.042 8.73212 116.105 8.74076H118.46C118.523 8.73212 118.587 8.7379 118.647 8.75763C118.707 8.77737 118.761 8.81052 118.806 8.85448C118.851 8.89845 118.885 8.95202 118.905 9.01098C118.925 9.06994 118.931 9.13268 118.922 9.19425V32.1122C119.034 34.426 118.251 36.6959 116.728 38.4648C116.001 39.2584 115.105 39.8851 114.103 40.3002C113.102 40.7154 112.019 40.9088 110.933 40.8669ZM144.462 8.73952C144.525 8.73088 144.589 8.73666 144.649 8.75639C144.709 8.77613 144.763 8.80928 144.808 8.85325C144.853 8.89721 144.887 8.95078 144.907 9.00974C144.927 9.0687 144.933 9.13144 144.924 9.19301V11.1058C144.933 11.1674 144.927 11.2301 144.907 11.2891C144.887 11.3481 144.853 11.4016 144.808 11.4456C144.763 11.4896 144.709 11.5227 144.649 11.5424C144.589 11.5622 144.525 11.568 144.462 11.5593H138.365C138.34 11.5558 138.314 11.5581 138.29 11.566C138.266 11.5739 138.244 11.5871 138.227 11.6048C138.209 11.6224 138.195 11.6439 138.187 11.6675C138.179 11.6911 138.177 11.7163 138.18 11.741V40.0551C138.189 40.1167 138.183 40.1794 138.163 40.2383C138.143 40.2973 138.109 40.3509 138.065 40.3948C138.02 40.4388 137.965 40.472 137.905 40.4917C137.845 40.5114 137.781 40.5172 137.719 40.5086H135.363C135.3 40.5172 135.237 40.5114 135.177 40.4917C135.117 40.472 135.062 40.4388 135.017 40.3948C134.973 40.3509 134.939 40.2973 134.919 40.2383C134.899 40.1794 134.893 40.1167 134.902 40.0551V11.7348C134.905 11.7101 134.903 11.685 134.895 11.6613C134.887 11.6377 134.873 11.6162 134.855 11.5986C134.837 11.581 134.816 11.5677 134.791 11.5598C134.767 11.5519 134.742 11.5496 134.717 11.5531H128.989C128.927 11.5618 128.863 11.556 128.803 11.5363C128.743 11.5165 128.688 11.4834 128.644 11.4394C128.599 11.3954 128.565 11.3419 128.545 11.2829C128.525 11.224 128.519 11.1612 128.528 11.0996V9.19425C128.519 9.13268 128.525 9.06994 128.545 9.01098C128.565 8.95202 128.599 8.89845 128.644 8.85448C128.688 8.81052 128.743 8.77737 128.803 8.75763C128.863 8.7379 128.927 8.73212 128.989 8.74076L144.462 8.73952ZM161.089 40.8669C160.057 40.9052 159.029 40.7266 158.073 40.343C157.117 39.9595 156.255 39.3798 155.546 38.6427C154.09 37.0557 153.327 34.9698 153.422 32.8351V31.7909C153.413 31.7294 153.419 31.6666 153.439 31.6077C153.459 31.5487 153.493 31.4951 153.538 31.4512C153.582 31.4072 153.637 31.374 153.697 31.3543C153.757 31.3346 153.821 31.3288 153.883 31.3374H156.147C156.21 31.3288 156.274 31.3346 156.334 31.3543C156.394 31.374 156.448 31.4072 156.493 31.4512C156.538 31.4951 156.571 31.5487 156.592 31.6077C156.612 31.6666 156.618 31.7294 156.609 31.7909V32.6979C156.54 34.0958 156.982 35.4718 157.855 36.5779C158.242 37.0521 158.735 37.432 159.296 37.6877C159.857 37.9435 160.47 38.0682 161.089 38.0521C161.699 38.0644 162.306 37.9448 162.864 37.7019C163.423 37.4589 163.921 37.0984 164.322 36.6459C165.219 35.6124 165.681 34.2819 165.615 32.9253C165.639 32.0024 165.422 31.0887 164.986 30.2711C164.573 29.5312 164.028 28.8703 163.377 28.3199C162.715 27.7606 161.614 26.9059 160.075 25.7559C158.535 24.6364 157.32 23.6759 156.428 22.8743C155.522 22.0552 154.778 21.0782 154.234 19.9928C153.64 18.7604 153.347 17.4083 153.38 16.0448C153.325 15.0219 153.48 13.9986 153.837 13.036C154.193 12.0734 154.743 11.1912 155.454 10.4423C156.163 9.75161 157.009 9.21183 157.939 8.85658C158.87 8.50133 159.865 8.33824 160.862 8.37747C161.907 8.33222 162.95 8.50955 163.918 8.89731C164.887 9.28506 165.759 9.87406 166.474 10.6239C167.931 12.2725 168.684 14.4102 168.575 16.591V17.7253C168.584 17.7869 168.578 17.8496 168.558 17.9086C168.538 17.9675 168.504 18.0211 168.46 18.0651C168.415 18.109 168.36 18.1422 168.3 18.1619C168.24 18.1817 168.176 18.1874 168.114 18.1788H165.798C165.736 18.1874 165.672 18.1817 165.612 18.1619C165.552 18.1422 165.497 18.109 165.453 18.0651C165.408 18.0211 165.374 17.9675 165.354 17.9086C165.334 17.8496 165.328 17.7869 165.337 17.7253V16.5428C165.405 15.1484 164.972 13.7749 164.113 12.6628C163.725 12.1856 163.23 11.8041 162.665 11.5486C162.101 11.293 161.483 11.1706 160.862 11.1911C160.289 11.1761 159.719 11.284 159.193 11.5075C158.666 11.7309 158.195 12.0644 157.814 12.4848C156.956 13.5086 156.527 14.8143 156.613 16.1375C156.594 16.9903 156.776 17.8359 157.143 18.6088C157.54 19.3745 158.081 20.0595 158.737 20.6279C159.445 21.263 160.493 22.095 161.881 23.1239C163.318 24.1305 164.698 25.2137 166.015 26.3688C166.878 27.1415 167.59 28.0628 168.116 29.0873C168.638 30.2033 168.891 31.4222 168.856 32.6497C168.963 34.8424 168.183 36.9876 166.685 38.6168C165.967 39.3599 165.097 39.9448 164.132 40.3327C163.167 40.7206 162.131 40.9027 161.089 40.8669ZM186.72 8.69503C187.756 8.6629 188.787 8.86512 189.732 9.28609C190.677 9.70707 191.51 10.3356 192.169 11.1231C193.62 12.9332 194.357 15.1966 194.247 17.4979C194.358 19.7645 193.637 21.995 192.214 23.7826C191.567 24.5569 190.747 25.1745 189.818 25.5876C188.889 26.0007 187.876 26.1982 186.857 26.1649H182.1C182.075 26.1614 182.05 26.1637 182.025 26.1716C182.001 26.1795 181.98 26.1928 181.962 26.2104C181.944 26.228 181.93 26.2495 181.922 26.2731C181.914 26.2968 181.912 26.3219 181.915 26.3466V40.0501C181.924 40.1117 181.918 40.1744 181.898 40.2334C181.878 40.2924 181.844 40.3459 181.8 40.3899C181.755 40.4339 181.7 40.467 181.64 40.4868C181.58 40.5065 181.516 40.5123 181.454 40.5036H179.098C179.036 40.5123 178.972 40.5065 178.912 40.4868C178.852 40.467 178.797 40.4339 178.752 40.3899C178.708 40.3459 178.674 40.2924 178.654 40.2334C178.634 40.1744 178.628 40.1117 178.637 40.0501V9.14852C178.628 9.08695 178.634 9.02422 178.654 8.96526C178.674 8.9063 178.708 8.85273 178.752 8.80876C178.797 8.7648 178.852 8.73164 178.912 8.71191C178.972 8.69217 179.036 8.68639 179.098 8.69503H186.72ZM186.305 23.533C186.959 23.5469 187.607 23.4057 188.194 23.1213C188.781 22.837 189.289 22.4178 189.676 21.8994C190.594 20.632 191.05 19.0972 190.969 17.5437C191.047 15.9831 190.592 14.4417 189.676 13.1644C189.293 12.6408 188.786 12.2165 188.198 11.928C187.611 11.6396 186.961 11.4957 186.305 11.5087H182.1C182.075 11.5051 182.05 11.5074 182.025 11.5153C182.001 11.5232 181.98 11.5365 181.962 11.5541C181.944 11.5717 181.93 11.5932 181.922 11.6168C181.914 11.6405 181.912 11.6656 181.915 11.6903V23.3513C181.912 23.376 181.914 23.4011 181.922 23.4248C181.93 23.4484 181.944 23.4699 181.962 23.4875C181.98 23.5051 182.001 23.5184 182.025 23.5263C182.05 23.5342 182.075 23.5365 182.1 23.533H186.305ZM215.077 40.5036C214.956 40.5115 214.837 40.4737 214.743 40.3979C214.65 40.3221 214.589 40.214 214.574 40.0959L213.42 34.4699C213.421 34.4433 213.416 34.4167 213.403 34.3929C213.391 34.369 213.373 34.3487 213.35 34.3339C213.302 34.3029 213.246 34.287 213.188 34.2882H204.829C204.771 34.287 204.714 34.3029 204.666 34.3339C204.644 34.3487 204.626 34.369 204.613 34.3929C204.601 34.4167 204.596 34.4433 204.597 34.4699L203.443 40.0959C203.44 40.1561 203.424 40.215 203.396 40.2689C203.369 40.3228 203.33 40.3704 203.283 40.4088C203.235 40.4472 203.18 40.4754 203.121 40.4917C203.062 40.5081 203 40.5121 202.94 40.5036H200.584C200.52 40.5083 200.455 40.4984 200.395 40.4749C200.335 40.4513 200.282 40.4147 200.238 40.3677C200.199 40.3166 200.172 40.2571 200.16 40.1941C200.148 40.131 200.151 40.0661 200.169 40.0044L207.096 9.14852C207.111 9.03035 207.172 8.92232 207.265 8.84652C207.359 8.77072 207.478 8.73289 207.599 8.74076H210.366C210.427 8.73226 210.489 8.73631 210.548 8.75264C210.607 8.76897 210.662 8.79722 210.709 8.83559C210.757 8.87396 210.795 8.92161 210.823 8.97549C210.85 9.02937 210.866 9.0883 210.869 9.14852L217.889 40.0044V40.0946C217.897 40.15 217.892 40.2064 217.874 40.2595C217.856 40.3125 217.826 40.3607 217.785 40.4003C217.745 40.4398 217.696 40.4696 217.642 40.4874C217.588 40.5051 217.531 40.5102 217.474 40.5024L215.077 40.5036ZM205.195 31.4734C205.195 31.5945 205.241 31.655 205.333 31.655H212.627C212.72 31.655 212.766 31.5945 212.766 31.4734L209.071 13.6402C209.04 13.5496 209.009 13.5043 208.979 13.5043C208.949 13.5043 208.918 13.5496 208.887 13.6402L205.195 31.4734ZM239.74 40.5036C239.619 40.5131 239.499 40.4824 239.398 40.4165C239.298 40.3506 239.223 40.2533 239.185 40.1403L234.473 26.1192C234.463 26.079 234.439 26.0434 234.405 26.0185C234.372 25.9937 234.33 25.9813 234.288 25.9833H230.27C230.245 25.9798 230.219 25.9821 230.195 25.9899C230.171 25.9978 230.149 26.0111 230.131 26.0287C230.113 26.0464 230.1 26.0678 230.092 26.0915C230.084 26.1151 230.081 26.1403 230.085 26.1649V40.0501C230.094 40.1117 230.088 40.1744 230.068 40.2334C230.048 40.2924 230.014 40.3459 229.969 40.3899C229.924 40.4339 229.87 40.467 229.81 40.4868C229.75 40.5065 229.686 40.5123 229.623 40.5036H227.266C227.204 40.5123 227.14 40.5065 227.08 40.4868C227.02 40.467 226.965 40.4339 226.921 40.3899C226.876 40.3459 226.842 40.2924 226.822 40.2334C226.802 40.1744 226.796 40.1117 226.805 40.0501V9.19425C226.796 9.13268 226.802 9.06994 226.822 9.01098C226.842 8.95202 226.876 8.89845 226.921 8.85448C226.965 8.81052 227.02 8.77737 227.08 8.75763C227.14 8.7379 227.204 8.73212 227.266 8.74076H234.887C235.924 8.70863 236.954 8.91084 237.899 9.33181C238.844 9.75278 239.678 10.3813 240.336 11.1688C241.782 12.9641 242.52 15.212 242.414 17.4992C242.463 19.2774 242.016 21.035 241.121 22.5815C240.331 23.9423 239.093 24.9986 237.611 25.5767C237.585 25.5794 237.56 25.588 237.538 25.6019C237.516 25.6157 237.497 25.6344 237.484 25.6565C237.47 25.6785 237.462 25.7033 237.46 25.729C237.458 25.7546 237.462 25.7803 237.472 25.8041L242.503 40.0069L242.55 40.1885C242.55 40.4002 242.411 40.5061 242.135 40.5061L239.74 40.5036ZM230.272 11.5544C230.247 11.5509 230.222 11.5531 230.198 11.561C230.173 11.5689 230.152 11.5822 230.134 11.5998C230.116 11.6174 230.102 11.6389 230.094 11.6626C230.086 11.6862 230.084 11.7113 230.087 11.736V23.2154C230.084 23.2401 230.086 23.2652 230.094 23.2888C230.102 23.3125 230.116 23.334 230.134 23.3516C230.152 23.3692 230.173 23.3825 230.198 23.3904C230.222 23.3983 230.247 23.4005 230.272 23.397H234.423C235.081 23.4158 235.735 23.2799 236.329 23.0005C236.923 22.7211 237.441 22.3063 237.84 21.7907C238.755 20.5479 239.212 19.0351 239.132 17.5029C239.209 15.9636 238.753 14.4442 237.84 13.1916C237.445 12.6697 236.929 12.2487 236.334 11.9644C235.74 11.68 235.084 11.5407 234.423 11.5581L230.272 11.5544ZM252.718 40.5036C252.655 40.5123 252.591 40.5065 252.531 40.4868C252.471 40.467 252.417 40.4339 252.372 40.3899C252.327 40.3459 252.293 40.2924 252.273 40.2334C252.253 40.1744 252.247 40.1117 252.256 40.0501V9.19425C252.247 9.13268 252.253 9.06994 252.273 9.01098C252.293 8.95202 252.327 8.89845 252.372 8.85448C252.417 8.81052 252.471 8.77737 252.531 8.75763C252.591 8.7379 252.655 8.73212 252.718 8.74076H255.073C255.136 8.73212 255.2 8.7379 255.26 8.75763C255.32 8.77737 255.374 8.81052 255.419 8.85448C255.464 8.89845 255.498 8.95202 255.518 9.01098C255.538 9.06994 255.544 9.13268 255.535 9.19425V23.8987C255.53 23.9345 255.536 23.9709 255.553 24.0032C255.569 24.0355 255.595 24.0624 255.627 24.0804C255.688 24.1108 255.734 24.0808 255.765 23.9901L264.678 9.06203C264.736 8.96773 264.817 8.88926 264.914 8.83378C265.011 8.77829 265.121 8.74758 265.233 8.74446H267.818C267.889 8.7352 267.961 8.74516 268.026 8.77328C268.091 8.80139 268.147 8.84656 268.188 8.90386C268.217 8.96607 268.229 9.03504 268.22 9.10309C268.212 9.17115 268.185 9.23564 268.142 9.28939L260.937 21.5868C260.909 21.6259 260.89 21.6706 260.882 21.7176C260.874 21.7646 260.877 21.8127 260.89 21.8586L268.832 39.9587L268.879 40.1403C268.879 40.3825 268.74 40.5036 268.464 40.5036H265.831C265.718 40.5076 265.607 40.4739 265.515 40.4079C265.424 40.342 265.358 40.2477 265.328 40.1403L258.678 24.713C258.647 24.5919 258.57 24.5919 258.446 24.713L255.583 29.0687C255.542 29.1374 255.526 29.2174 255.536 29.2961V40.0464C255.545 40.108 255.539 40.1707 255.519 40.2297C255.499 40.2887 255.465 40.3422 255.42 40.3862C255.376 40.4302 255.321 40.4633 255.261 40.4831C255.201 40.5028 255.137 40.5086 255.075 40.4999L252.718 40.5036Z" fill="white"/>
<path d="M81.9214 55.0513C82.5651 55.1598 83.1778 55.402 83.7186 55.7618C83.9564 55.9432 84.1475 56.1768 84.2766 56.444C84.4057 56.7112 84.4692 57.0045 84.4619 57.3002C84.4664 57.6185 84.3949 57.9335 84.2532 58.2197C84.1114 58.506 83.9034 58.7556 83.6456 58.9486C82.7941 59.528 81.7675 59.806 80.7342 59.7369H76.1651V59.4898C76.4518 59.5101 76.7396 59.4714 77.0102 59.3761C77.1445 59.3135 77.2541 59.2093 77.3221 59.0796C77.4026 58.7883 77.4327 58.4859 77.4114 58.1849V52.4514C77.433 52.148 77.4028 51.8431 77.3221 51.5494C77.2548 51.4182 77.1439 51.3135 77.0077 51.2528C76.7373 51.1603 76.4507 51.1225 76.1651 51.1416V50.8945H80.4763C81.2164 50.8538 81.9579 50.9454 82.6647 51.1651C83.076 51.3313 83.4289 51.6123 83.6796 51.9732C83.9218 52.3076 84.0536 52.707 84.0569 53.1175C84.0574 53.5422 83.8885 53.9503 83.5865 54.2543C83.1178 54.6671 82.5411 54.9431 81.9214 55.0513ZM79.5067 54.8758C79.9775 54.9007 80.4486 54.8296 80.8901 54.667C81.1726 54.5417 81.4114 54.3376 81.5768 54.08C81.7469 53.7867 81.8297 53.4523 81.8157 53.115C81.8299 52.7793 81.7485 52.4463 81.5806 52.1536C81.4202 51.9012 81.1855 51.7025 80.9077 51.584C80.4566 51.4294 79.9785 51.3651 79.5017 51.3949L79.5067 54.8758ZM79.5067 55.3837V58.2183L79.5004 58.5445C79.4931 58.6406 79.5055 58.7371 79.5368 58.8283C79.5681 58.9196 79.6178 59.0038 79.6828 59.0759C79.7561 59.1397 79.8418 59.1885 79.9347 59.2193C80.0276 59.25 80.1258 59.2622 80.2235 59.255C80.5641 59.2583 80.9002 59.1789 81.202 59.024C81.4955 58.8747 81.7352 58.6405 81.8887 58.353C82.0502 58.0506 82.1324 57.7133 82.1276 57.3719C82.134 56.9821 82.0332 56.5979 81.8359 56.2598C81.6578 55.9461 81.3741 55.7031 81.0335 55.5727C80.5404 55.4213 80.0238 55.3573 79.5079 55.3837H79.5067ZM96.2134 50.8945V51.1416C95.966 51.162 95.7294 51.2502 95.5305 51.3962C95.1148 51.8454 94.7624 52.3474 94.4829 52.8889L92.5322 56.0843V58.222C92.5138 58.5074 92.5384 58.7938 92.6052 59.0721C92.6675 59.1971 92.7683 59.2995 92.8932 59.365C93.0696 59.4561 93.2677 59.4988 93.4667 59.4886H93.9698V59.7357H88.924V59.4886H89.3944C89.6127 59.499 89.8299 59.4516 90.0232 59.3514C90.1474 59.2807 90.2433 59.1704 90.2949 59.0388C90.362 58.7706 90.3866 58.4938 90.3678 58.2183V56.455L88.2537 52.6664C88.0227 52.1872 87.7233 51.7429 87.3645 51.3467C87.1641 51.2056 86.9218 51.1334 86.6753 51.1416V50.8945H90.9866V51.1416H90.7942C90.6047 51.1254 90.4145 51.1641 90.2471 51.2528C90.2037 51.2767 90.1669 51.3105 90.1398 51.3514C90.1126 51.3923 90.0959 51.439 90.0911 51.4876C90.2006 51.907 90.3799 52.3058 90.6219 52.6677L92.2442 55.59L93.8629 52.9247C94.1517 52.5374 94.3571 52.0964 94.4665 51.6285C94.4656 51.5693 94.4493 51.5113 94.4191 51.46C94.389 51.4088 94.346 51.366 94.2942 51.3356C94.0404 51.1997 93.7544 51.1323 93.4654 51.1404V50.8945H96.2134ZM110.815 50.8945V53.2917H110.576C110.489 52.8721 110.33 52.4701 110.106 52.103C109.924 51.8539 109.679 51.6551 109.396 51.5259C109.113 51.4303 108.814 51.3904 108.516 51.4085H107.839V58.2245C107.82 58.5092 107.846 58.7951 107.916 59.0721C107.981 59.1995 108.085 59.3034 108.214 59.3687C108.402 59.4612 108.611 59.5038 108.821 59.4923H109.119V59.7394H104.413V59.4923H104.711C104.93 59.5016 105.147 59.4543 105.34 59.3551C105.464 59.2844 105.56 59.1741 105.612 59.0425C105.679 58.7743 105.704 58.4976 105.685 58.222V51.4085H105.035C104.562 51.3671 104.091 51.5021 103.715 51.7866C103.304 52.1915 103.047 52.7228 102.986 53.2917H102.734V50.8945H110.815ZM116.637 55.4825V58.2195C116.618 58.5043 116.644 58.7902 116.713 59.0672C116.778 59.1946 116.882 59.2984 117.011 59.3638C117.197 59.4556 117.404 59.4982 117.611 59.4873H117.909V59.7345H113.207V59.4873H113.499C113.717 59.4967 113.934 59.4493 114.127 59.3502C114.251 59.28 114.345 59.1692 114.393 59.0375C114.46 58.7694 114.485 58.4926 114.466 58.2171V52.4094C114.484 52.1249 114.459 51.8393 114.393 51.5617C114.33 51.4339 114.226 51.3298 114.097 51.2652C113.912 51.1735 113.706 51.131 113.499 51.1416H113.201V50.8945H117.903V51.1416H117.605C117.387 51.1323 117.17 51.1796 116.976 51.2788C116.852 51.3495 116.756 51.4598 116.704 51.5914C116.637 51.8596 116.613 52.1363 116.631 52.4119V54.9141H119.812V52.4119C119.83 52.1273 119.806 51.8417 119.739 51.5642C119.676 51.4359 119.571 51.3317 119.441 51.2677C119.254 51.176 119.046 51.1334 118.837 51.1441H118.546V50.8945H123.242V51.1416H122.95C122.732 51.1312 122.514 51.1786 122.321 51.2788C122.197 51.3495 122.101 51.4598 122.049 51.5914C121.982 51.8596 121.958 52.1363 121.977 52.4119V58.2195C121.958 58.5041 121.983 58.7897 122.049 59.0672C122.113 59.1955 122.218 59.2997 122.348 59.3638C122.535 59.4554 122.743 59.498 122.951 59.4873H123.243V59.7345H118.546V59.4873H118.837C119.056 59.4977 119.273 59.4504 119.466 59.3502C119.59 59.2795 119.686 59.1692 119.738 59.0375C119.805 58.7694 119.83 58.4926 119.811 58.2171V55.4875L116.637 55.4825ZM128.806 51.4048V55.0018H128.984C129.219 55.0227 129.456 54.9857 129.672 54.8942C129.889 54.8028 130.079 54.6597 130.226 54.4779C130.521 54.0083 130.69 53.4725 130.716 52.921H130.968V57.5473H130.716C130.684 57.1186 130.57 56.6996 130.381 56.3117C130.258 56.0395 130.05 55.8125 129.788 55.6629C129.477 55.5365 129.142 55.4799 128.806 55.4974V57.9872C128.789 58.286 128.81 58.5857 128.869 58.8794C128.914 58.9919 128.997 59.0859 129.104 59.1463C129.277 59.2279 129.469 59.2637 129.661 59.2501H130.198C130.917 59.2862 131.627 59.0852 132.216 58.6792C132.766 58.2308 133.149 57.6172 133.308 56.9332H133.56L133.155 59.7419H125.375V59.4947H125.673C125.891 59.5041 126.108 59.4568 126.302 59.3576C126.425 59.2874 126.519 59.1767 126.567 59.045C126.634 58.7768 126.659 58.5 126.64 58.2245V52.4168C126.649 52.1692 126.638 51.9213 126.607 51.6754C126.569 51.5322 126.48 51.4073 126.356 51.3233C126.152 51.1914 125.91 51.1273 125.667 51.1404H125.368V50.8945H132.897V53.5141H132.645C132.577 53.0204 132.392 52.5494 132.104 52.1388C131.846 51.8417 131.503 51.6267 131.12 51.521C130.663 51.422 130.195 51.3826 129.727 51.4036L128.806 51.4048ZM149.116 50.8945V53.2917H148.877C148.79 52.8721 148.63 52.4701 148.406 52.103C148.224 51.8539 147.98 51.6551 147.697 51.5259C147.414 51.4302 147.115 51.3903 146.817 51.4085H146.146V58.2245C146.127 58.5092 146.153 58.7951 146.223 59.0721C146.288 59.1995 146.392 59.3034 146.521 59.3687C146.709 59.4612 146.918 59.5038 147.128 59.4923H147.427V59.7394H142.715V59.4923H143.013C143.232 59.5016 143.449 59.4543 143.642 59.3551C143.766 59.2844 143.862 59.1741 143.914 59.0425C143.981 58.7743 144.006 58.4976 143.987 58.222V51.4085H143.337C142.864 51.3671 142.393 51.5021 142.017 51.7866C141.608 52.1923 141.352 52.7234 141.293 53.2917H141.041V50.8945H149.116ZM156.197 59.4898V59.7369H151.495V59.4898H151.793C152.011 59.4991 152.228 59.4518 152.422 59.3526C152.545 59.2825 152.639 59.1717 152.687 59.04C152.754 58.7718 152.779 58.4951 152.76 58.2195V52.4119C152.778 52.1273 152.754 51.8417 152.687 51.5642C152.624 51.4364 152.52 51.3323 152.392 51.2677C152.206 51.1758 151.999 51.1332 151.792 51.1441H151.494V50.8945H156.196V51.1416H155.898C155.68 51.1323 155.463 51.1796 155.269 51.2788C155.146 51.3501 155.052 51.4604 155.001 51.5914C154.934 51.8596 154.91 52.1363 154.928 52.4119V58.2195C154.908 58.5057 154.933 58.7933 155.001 59.0721C155.066 59.1995 155.171 59.3034 155.299 59.3687C155.485 59.4606 155.692 59.5032 155.899 59.4923L156.197 59.4898ZM164.599 56.7207L167.04 50.8945H170.701V51.1416H170.409C170.188 51.1316 169.969 51.1789 169.773 51.2788C169.653 51.35 169.56 51.4576 169.507 51.5852C169.44 51.8513 169.416 52.126 169.434 52.3995V58.2257C169.416 58.5103 169.441 58.7959 169.507 59.0734C169.571 59.2017 169.675 59.3059 169.805 59.3699C169.992 59.4616 170.2 59.5042 170.409 59.4935H170.701V59.7406H166.005V59.4935H166.296C166.517 59.5035 166.737 59.4562 166.933 59.3563C167.054 59.2856 167.148 59.178 167.201 59.0499C167.268 58.7817 167.292 58.505 167.274 58.2294V51.6804L163.823 59.7369H163.663L160.158 51.7347V57.9576C160.149 58.2253 160.16 58.4933 160.19 58.7595C160.247 58.9754 160.381 59.164 160.568 59.2909C160.841 59.4481 161.157 59.5197 161.473 59.496V59.7431H158.397V59.496H158.49C158.68 59.502 158.87 59.47 159.047 59.4021C159.2 59.3483 159.335 59.2548 159.438 59.1315C159.54 58.9887 159.61 58.8266 159.643 58.6557C159.653 58.6079 159.657 58.3863 159.657 57.9909V52.3995C159.675 52.1183 159.651 51.8359 159.584 51.5617C159.52 51.435 159.415 51.3323 159.286 51.2689C159.099 51.1772 158.891 51.1347 158.683 51.1453H158.397V50.8945H162.072L164.599 56.7207ZM176.263 51.4073V55.0043H176.442C176.677 55.0245 176.913 54.9869 177.13 54.8947C177.346 54.8026 177.536 54.6589 177.682 54.4767C177.978 54.0071 178.146 53.4713 178.172 52.9197H178.424V57.5461H178.172C178.14 57.1174 178.027 56.6983 177.838 56.3104C177.714 56.0383 177.507 55.8113 177.244 55.6617C176.934 55.5353 176.598 55.4787 176.262 55.4961V57.986C176.245 58.2848 176.266 58.5845 176.325 58.8781C176.37 58.9906 176.453 59.0847 176.56 59.145C176.734 59.2267 176.926 59.2624 177.117 59.2488H177.654C178.374 59.2859 179.085 59.0853 179.675 58.6792C180.225 58.2308 180.608 57.6172 180.767 56.9332H181.019L180.607 59.7369H172.834V59.4898H173.132C173.35 59.4991 173.567 59.4518 173.761 59.3526C173.884 59.2825 173.978 59.1717 174.026 59.04C174.093 58.7718 174.118 58.4951 174.099 58.2195V52.4119C174.108 52.1643 174.097 51.9164 174.066 51.6705C174.028 51.5273 173.939 51.4023 173.815 51.3183C173.611 51.1865 173.369 51.1224 173.125 51.1354H172.827V50.8945H180.356V53.5141H180.104C180.036 53.0204 179.851 52.5494 179.563 52.1388C179.305 51.8417 178.962 51.6267 178.579 51.521C178.122 51.422 177.654 51.3826 177.186 51.4036L176.263 51.4073ZM189.62 50.6968L189.693 53.6426H189.421C189.323 52.9601 188.989 52.3312 188.476 51.8608C188.042 51.4384 187.459 51.1968 186.848 51.1861C186.458 51.1651 186.074 51.292 185.776 51.5407C185.654 51.6409 185.556 51.766 185.487 51.9072C185.419 52.0484 185.383 52.2025 185.381 52.3588C185.378 52.5419 185.426 52.7225 185.521 52.8802C185.684 53.1195 185.894 53.3251 186.137 53.4857C186.601 53.7674 187.082 54.0219 187.576 54.2481C188.378 54.5806 189.103 55.0705 189.705 55.6876C190.063 56.1274 190.255 56.6753 190.249 57.2384C190.25 57.5998 190.172 57.9572 190.02 58.2863C189.869 58.6154 189.646 58.9083 189.368 59.145C188.758 59.6863 187.957 59.9727 187.136 59.9433C186.866 59.9445 186.597 59.9159 186.333 59.858C186.01 59.7791 185.694 59.6742 185.388 59.5442C185.223 59.4687 185.045 59.4246 184.863 59.4144C184.731 59.4202 184.604 59.4655 184.498 59.5442C184.359 59.6455 184.251 59.7833 184.187 59.9421H183.935V56.6057H184.187C184.317 57.4207 184.711 58.1726 185.311 58.7496C185.791 59.213 186.433 59.4783 187.106 59.491C187.537 59.5127 187.961 59.3703 188.289 59.0932C188.426 58.9794 188.537 58.8377 188.613 58.678C188.689 58.5182 188.729 58.3441 188.731 58.1676C188.729 57.9548 188.671 57.746 188.562 57.5622C188.429 57.345 188.255 57.1556 188.048 57.0049C187.663 56.7401 187.255 56.5101 186.828 56.3178C186.209 56.038 185.619 55.6999 185.067 55.3083C184.731 55.0554 184.45 54.7385 184.241 54.3766C184.047 54.029 183.948 53.6384 183.953 53.2423C183.948 52.9046 184.016 52.5699 184.152 52.2598C184.288 51.9498 184.489 51.6715 184.742 51.4431C185.008 51.1966 185.32 51.0042 185.662 50.877C186.003 50.7497 186.367 50.6902 186.732 50.7017C187.018 50.7009 187.304 50.7358 187.581 50.8055C187.841 50.8784 188.094 50.9757 188.336 51.0959C188.53 51.2043 188.743 51.276 188.964 51.3072C189.015 51.3098 189.065 51.3019 189.112 51.284C189.158 51.2661 189.201 51.2386 189.236 51.2034C189.336 51.052 189.399 50.8805 189.422 50.7017L189.62 50.6968ZM202.667 50.7709C203.305 50.7204 203.947 50.8045 204.549 51.0176C205.151 51.2308 205.7 51.5679 206.159 52.0066C206.6 52.4332 206.947 52.9444 207.178 53.5084C207.409 54.0724 207.519 54.6771 207.502 55.2848C207.518 56.3545 207.164 57.3978 206.496 58.243C206.057 58.8015 205.487 59.2473 204.834 59.5423C204.181 59.8373 203.466 59.9728 202.748 59.9371C202.038 59.9752 201.328 59.8488 200.675 59.5681C200.023 59.2874 199.448 58.8602 198.994 58.3209C198.294 57.4632 197.923 56.3905 197.947 55.291C197.931 54.6802 198.044 54.0729 198.279 53.5075C198.515 52.942 198.868 52.4309 199.315 52.0066C199.752 51.5782 200.277 51.2464 200.855 51.0333C201.433 50.8202 202.051 50.7308 202.667 50.7709ZM202.746 51.1886C202.344 51.1884 201.95 51.3058 201.616 51.5258C201.282 51.7459 201.022 52.0586 200.869 52.4242C200.472 53.346 200.293 54.3444 200.345 55.3441C200.256 56.5165 200.539 57.6872 201.157 58.694C201.336 58.939 201.574 59.1364 201.849 59.2685C202.125 59.4005 202.429 59.463 202.736 59.4503C203.142 59.4646 203.542 59.3502 203.876 59.124C204.311 58.7816 204.627 58.3167 204.785 57.792C205.025 57.0186 205.134 56.2117 205.109 55.4034C205.148 54.5169 205.036 53.6302 204.777 52.7801C204.625 52.2976 204.331 51.8701 203.932 51.5519C203.586 51.3117 203.171 51.1862 202.747 51.1935L202.746 51.1886ZM213.337 51.4036V55.0327H213.596C213.93 55.045 214.262 54.9851 214.57 54.8573C214.838 54.7255 215.061 54.5193 215.211 54.2642C215.407 53.9175 215.524 53.5329 215.553 53.1372H215.785V57.5795H215.553C215.559 57.2717 215.502 56.9658 215.384 56.6806C215.266 56.3954 215.089 56.137 214.866 55.9212C214.498 55.6559 214.052 55.5154 213.596 55.5208H213.337V58.2257C213.318 58.5105 213.344 58.7964 213.413 59.0734C213.478 59.2008 213.583 59.3046 213.711 59.3699C213.897 59.4618 214.104 59.5044 214.311 59.4935H214.609V59.7406H209.907V59.4935H210.205C210.423 59.5028 210.64 59.4555 210.834 59.3563C210.957 59.2862 211.051 59.1754 211.099 59.0437C211.166 58.7755 211.191 58.4988 211.172 58.2232V52.4156C211.19 52.1311 211.166 51.8454 211.099 51.5679C211.036 51.4401 210.932 51.336 210.804 51.2714C210.618 51.1795 210.411 51.1369 210.204 51.1478H209.906V50.8945H217.493V53.4288H217.221C217.204 52.9506 217.039 52.489 216.747 52.1054C216.452 51.7959 216.066 51.5842 215.643 51.5C215.157 51.4176 214.663 51.3849 214.17 51.4023L213.337 51.4036ZM228.998 59.491V59.7382H224.298V59.491H224.596C224.815 59.5004 225.032 59.4531 225.225 59.3539C225.348 59.2837 225.442 59.173 225.491 59.0413C225.558 58.7731 225.582 58.4963 225.564 58.2208V52.4131C225.582 52.1286 225.557 51.843 225.491 51.5655C225.428 51.4376 225.324 51.3335 225.195 51.2689C225.009 51.177 224.803 51.1344 224.595 51.1453H224.298V50.8945H229.001V51.1416H228.7C228.482 51.1323 228.265 51.1796 228.071 51.2788C227.947 51.3495 227.851 51.4598 227.8 51.5914C227.733 51.8596 227.708 52.1363 227.727 52.4119V58.2195C227.708 58.5043 227.734 58.7902 227.803 59.0672C227.868 59.1946 227.973 59.2984 228.102 59.3638C228.287 59.4556 228.494 59.4982 228.701 59.4873L228.998 59.491ZM234.311 50.8945L238.748 56.3747V52.5812C238.786 52.2077 238.705 51.8318 238.515 51.5061C238.378 51.3682 238.21 51.263 238.025 51.1988C237.84 51.1345 237.642 51.1128 237.447 51.1354V50.8945H240.419V51.1416C240.155 51.1589 239.895 51.2216 239.653 51.327C239.512 51.4141 239.405 51.5444 239.347 51.6977C239.258 51.9835 239.221 52.2826 239.238 52.5812V59.9383H239.013L232.931 52.5812V58.1985C232.906 58.3853 232.925 58.5751 232.987 58.7535C233.048 58.9319 233.151 59.0942 233.286 59.2278C233.518 59.4045 233.804 59.4986 234.098 59.4947H234.311V59.7419H231.12V59.4947C231.491 59.5299 231.862 59.4223 232.155 59.1945C232.378 58.9109 232.483 58.5541 232.447 58.1973V51.9621L232.254 51.7273C232.119 51.542 231.948 51.385 231.751 51.2652C231.553 51.1804 231.339 51.1383 231.122 51.1416V50.8945H234.311ZM242.534 59.7369V59.4898H242.832C243.04 59.5004 243.247 59.4578 243.432 59.3662C243.567 59.2904 243.675 59.1756 243.74 59.0375C243.797 58.7678 243.817 58.4919 243.8 58.2171V52.4094C243.818 52.1249 243.793 51.8393 243.727 51.5617C243.664 51.4339 243.56 51.3297 243.431 51.2652C243.246 51.1733 243.039 51.1307 242.831 51.1416H242.534V50.8945H246.559C247.444 50.8611 248.327 51.0075 249.152 51.3245C249.92 51.6476 250.559 52.2082 250.973 52.921C251.393 53.6607 251.605 54.4963 251.59 55.3429C251.596 55.929 251.492 56.5112 251.284 57.0605C251.108 57.5385 250.84 57.9787 250.494 58.3567C250.175 58.6946 249.796 58.9726 249.376 59.1772C248.885 59.4055 248.364 59.5668 247.828 59.6566C247.406 59.7192 246.98 59.7452 246.554 59.7345L242.534 59.7369ZM245.963 51.4023V58.2974C245.949 58.5224 245.966 58.7482 246.016 58.9683C246.05 59.0503 246.114 59.1174 246.194 59.1574C246.356 59.2312 246.533 59.2647 246.711 59.255C247.033 59.2736 247.354 59.2159 247.649 59.0869C247.943 58.9579 248.202 58.7613 248.403 58.5136C249.006 57.5879 249.285 56.4943 249.199 55.3985C249.241 54.4627 249.055 53.5306 248.655 52.68C248.424 52.2046 248.033 51.8224 247.547 51.5988C247.036 51.4365 246.498 51.3698 245.962 51.4023H245.963ZM258.758 59.496V59.7431H254.056V59.496H254.354C254.572 59.5053 254.789 59.458 254.983 59.3588C255.106 59.2886 255.2 59.1779 255.248 59.0462C255.315 58.778 255.34 58.5013 255.321 58.2257V52.4181C255.339 52.1335 255.315 51.8479 255.248 51.5704C255.185 51.4426 255.081 51.3384 254.952 51.2738C254.767 51.1819 254.56 51.1393 254.353 51.1503H254.055V50.8945H258.758V51.1416H258.46C258.242 51.1323 258.025 51.1796 257.831 51.2788C257.707 51.3495 257.611 51.4598 257.56 51.5914C257.493 51.8596 257.468 52.1363 257.487 52.4119V58.2195C257.468 58.5043 257.494 58.7902 257.563 59.0672C257.628 59.1946 257.733 59.2984 257.861 59.3638C258.047 59.4557 258.254 59.4983 258.461 59.4873L258.758 59.496ZM266.337 57.2211H263.16L262.783 58.0861C262.675 58.3089 262.611 58.5502 262.597 58.7966C262.59 58.9068 262.616 59.0165 262.67 59.1132C262.724 59.21 262.804 59.2899 262.902 59.344C263.184 59.4465 263.482 59.4997 263.783 59.5009V59.7481H260.792V59.5009C261.095 59.4629 261.376 59.3238 261.588 59.1067C261.91 58.7022 262.169 58.2534 262.358 57.7747L265.575 50.724H265.7L268.945 57.9637C269.122 58.4353 269.38 58.8737 269.707 59.26C269.887 59.406 270.111 59.4886 270.344 59.4947V59.7419H265.992V59.4947H266.171C266.425 59.5156 266.68 59.4659 266.907 59.3514C266.954 59.3173 266.993 59.2719 267.018 59.2195C267.044 59.167 267.056 59.1092 267.052 59.0511C267.052 58.9672 267.039 58.8838 267.012 58.804C267.003 58.7653 266.937 58.6005 266.813 58.3097L266.337 57.2211ZM266.112 56.7392L264.772 53.6957L263.389 56.7392H266.112Z" fill="white"/>
</g>
</svg>
