<svg width="189" height="48" viewBox="0 0 189 48" fill="none" xmlns="http://www.w3.org/2000/svg">
<mask id="mask0_332_452" style="mask-type:luminance" maskUnits="userSpaceOnUse" x="0" y="0" width="47" height="48">
<path d="M46.3158 1.90735e-06H0V48H46.3158V1.90735e-06Z" fill="white"/>
</mask>
<g mask="url(#mask0_332_452)">
<path d="M15.4901 17.4878L10.925 0.83195L23.8228 11.8027L15.4901 17.4878Z" fill="#C0C0C0"/>
<path d="M34.8728 21.9165L46.3289 30.9872L31.3447 30.4208L34.8728 21.9165Z" fill="#C0C0C0"/>
<path d="M23.0203 40.57L20.2872 30.2374L19.8946 28.7532L18.3615 28.6727L7.21347 28.0871L34.9105 10.2084L23.0203 40.57Z" fill="#1CB08F"/>
<path d="M23.4088 33.8019L30.5693 15.5176L13.8264 26.3252L21.5383 26.7303L23.4088 33.8019ZM22.6319 47.338L18.251 30.776L0.600483 29.8488L39.2517 4.89904L22.6319 47.338Z" fill="#1CB08F"/>
</g>
<mask id="mask1_332_452" style="mask-type:luminance" maskUnits="userSpaceOnUse" x="50" y="4" width="139" height="40">
<path d="M188.643 4.12132H50.8296V43.372H188.643V4.12132Z" fill="white"/>
</mask>
<g mask="url(#mask1_332_452)">
<path d="M58.5507 28.8475C57.816 28.8783 57.0829 28.7577 56.3969 28.4931C55.7108 28.2286 55.0866 27.8258 54.5628 27.3097C54.0479 26.7694 53.6476 26.1304 53.3862 25.4312C53.1248 24.7321 53.0076 23.9872 53.0416 23.2416V11.5187C53.0076 10.7731 53.1248 10.0283 53.3862 9.32912C53.6476 8.62997 54.0479 7.99097 54.5628 7.45062C55.0866 6.93456 55.7108 6.53174 56.3969 6.2672C57.0829 6.00265 57.816 5.88205 58.5507 5.91287C59.2926 5.88107 60.0332 6.00105 60.7272 6.26547C61.4212 6.52988 62.0538 6.93316 62.5865 7.45062C63.1062 7.98839 63.5106 8.62657 63.775 9.32607C64.0394 10.0256 64.1582 10.7717 64.1243 11.5187V23.2416C64.1546 23.9854 64.0341 24.7276 63.7698 25.4234C63.5055 26.1193 63.103 26.7544 62.5865 27.2905C62.0565 27.8129 61.4247 28.2207 60.7304 28.4886C60.0362 28.7564 59.2942 28.8786 58.5507 28.8475ZM58.5507 26.8614C58.9951 26.8784 59.4381 26.8 59.8497 26.6315C60.2614 26.463 60.6321 26.2083 60.9371 25.8845C61.5579 25.1977 61.8846 24.2948 61.8469 23.3698V11.4202C61.8875 10.4847 61.5596 9.5705 60.9336 8.87411C60.6287 8.55032 60.2579 8.29561 59.8462 8.1271C59.4346 7.95859 58.9917 7.88021 58.5472 7.89721C58.11 7.88135 57.6745 7.96047 57.2708 8.12912C56.8671 8.29777 56.5047 8.55194 56.2087 8.87411C55.5925 9.5753 55.2712 10.4876 55.3121 11.4202V23.3698C55.2761 24.2928 55.5987 25.194 56.2122 25.8845C56.5082 26.2067 56.8706 26.4608 57.2743 26.6295C57.678 26.7981 58.1134 26.8772 58.5507 26.8614ZM76.9366 28.8475C76.1903 28.8757 75.4471 28.7381 74.7604 28.4446C74.0737 28.1511 73.4606 27.709 72.9653 27.1501C71.9189 25.8976 71.3813 24.2978 71.4589 22.6677V6.49029C71.4528 6.44683 71.4569 6.40254 71.4708 6.36092C71.4848 6.31931 71.5082 6.28149 71.5392 6.25046C71.5702 6.21942 71.608 6.19602 71.6497 6.18209C71.6913 6.16816 71.7356 6.16408 71.779 6.17018H73.4127C73.4562 6.16408 73.5005 6.16816 73.5421 6.18209C73.5837 6.19602 73.6215 6.21942 73.6526 6.25046C73.6836 6.28149 73.707 6.31931 73.7209 6.36092C73.7348 6.40254 73.7389 6.44683 73.7328 6.49029V22.9215C73.6849 23.9453 73.9966 24.9537 74.6138 25.772C74.8883 26.1231 75.2416 26.4046 75.6451 26.5939C76.0487 26.7832 76.4911 26.8748 76.9366 26.8614C77.389 26.876 77.8387 26.7852 78.25 26.5961C78.6613 26.4071 79.023 26.1249 79.3064 25.772C79.9333 24.9579 80.251 23.9478 80.2031 22.9215V6.49029C80.197 6.44683 80.2011 6.40254 80.215 6.36092C80.2289 6.31931 80.2523 6.28149 80.2834 6.25046C80.3144 6.21942 80.3522 6.19602 80.3938 6.18209C80.4354 6.16816 80.4797 6.16408 80.5232 6.17018H82.1569C82.2004 6.16408 82.2446 6.16816 82.2863 6.18209C82.3279 6.19602 82.3657 6.21942 82.3967 6.25046C82.4278 6.28149 82.4512 6.31931 82.4651 6.36092C82.479 6.40254 82.4831 6.44683 82.477 6.49029V22.6677C82.5552 24.301 82.0116 25.9032 80.9558 27.1518C80.4513 27.7121 79.8297 28.1544 79.1351 28.4474C78.4405 28.7405 77.6899 28.8771 76.9366 28.8475ZM100.19 6.16931C100.234 6.16321 100.278 6.16728 100.32 6.18121C100.361 6.19515 100.399 6.21855 100.43 6.24958C100.461 6.28062 100.485 6.31843 100.499 6.36005C100.513 6.40167 100.517 6.44595 100.511 6.48941V7.83964C100.517 7.8831 100.513 7.92739 100.499 7.969C100.485 8.01062 100.461 8.04844 100.43 8.07947C100.399 8.1105 100.361 8.13391 100.32 8.14784C100.278 8.16177 100.234 8.16585 100.19 8.15975H95.9618C95.9444 8.15727 95.9266 8.15889 95.9099 8.16445C95.8933 8.17002 95.8781 8.1794 95.8657 8.19183C95.8532 8.20427 95.8438 8.21943 95.8383 8.23612C95.8327 8.2528 95.8311 8.27055 95.8336 8.28797V28.2744C95.8397 28.3179 95.8356 28.3622 95.8217 28.4038C95.8077 28.4454 95.7843 28.4832 95.7533 28.5142C95.7223 28.5453 95.6844 28.5687 95.6428 28.5826C95.6012 28.5965 95.5569 28.6006 95.5135 28.5945H93.8798C93.8363 28.6006 93.792 28.5965 93.7504 28.5826C93.7088 28.5687 93.671 28.5453 93.6399 28.5142C93.6089 28.4832 93.5855 28.4454 93.5716 28.4038C93.5576 28.3622 93.5536 28.3179 93.5597 28.2744V8.28361C93.5621 8.26619 93.5605 8.24844 93.5549 8.23176C93.5494 8.21507 93.54 8.19991 93.5276 8.18747C93.5151 8.17503 93.5 8.16566 93.4833 8.16009C93.4666 8.15452 93.4488 8.15292 93.4314 8.15539H89.4593C89.4158 8.16149 89.3715 8.15741 89.3299 8.14348C89.2883 8.12955 89.2505 8.10614 89.2194 8.07511C89.1884 8.04408 89.165 8.00626 89.1511 7.96464C89.1371 7.92302 89.1331 7.87874 89.1392 7.83528V6.49029C89.1331 6.44683 89.1371 6.40254 89.1511 6.36092C89.165 6.31931 89.1884 6.28149 89.2194 6.25046C89.2505 6.21942 89.2883 6.19602 89.3299 6.18209C89.3715 6.16816 89.4158 6.16408 89.4593 6.17018L100.19 6.16931ZM111.721 28.8475C111.006 28.8745 110.293 28.7484 109.63 28.4777C108.967 28.2069 108.369 27.7977 107.877 27.2774C106.867 26.1572 106.338 24.6848 106.404 23.1779V22.4409C106.398 22.3974 106.402 22.3531 106.416 22.3115C106.43 22.2699 106.453 22.2321 106.484 22.2011C106.516 22.17 106.553 22.1466 106.595 22.1327C106.637 22.1188 106.681 22.1147 106.724 22.1208H108.294C108.338 22.1147 108.382 22.1188 108.424 22.1327C108.465 22.1466 108.503 22.17 108.534 22.2011C108.565 22.2321 108.589 22.2699 108.603 22.3115C108.616 22.3531 108.621 22.3974 108.614 22.4409V23.0811C108.567 24.0679 108.874 25.0391 109.479 25.8199C109.747 26.1547 110.089 26.4228 110.478 26.6033C110.867 26.7839 111.293 26.8719 111.721 26.8605C112.145 26.8692 112.565 26.7848 112.953 26.6133C113.34 26.4418 113.685 26.1874 113.964 25.8679C114.586 25.1384 114.907 24.1992 114.861 23.2416C114.877 22.5901 114.727 21.9452 114.424 21.368C114.138 20.8458 113.76 20.3793 113.309 19.9908C112.849 19.5959 112.086 18.9926 111.018 18.1809C109.951 17.3906 109.108 16.7126 108.489 16.1468C107.86 15.5686 107.345 14.879 106.968 14.1128C106.555 13.2429 106.352 12.2884 106.375 11.326C106.337 10.604 106.445 9.88161 106.692 9.20212C106.939 8.52263 107.321 7.89993 107.814 7.37125C108.305 6.88372 108.892 6.5027 109.537 6.25194C110.183 6.00117 110.873 5.88605 111.564 5.91374C112.289 5.8818 113.012 6.00698 113.684 6.28069C114.356 6.55439 114.96 6.97016 115.456 7.49947C116.467 8.6632 116.989 10.1721 116.914 11.7115V12.5122C116.92 12.5557 116.916 12.6 116.902 12.6416C116.888 12.6832 116.865 12.721 116.834 12.752C116.802 12.7831 116.765 12.8065 116.723 12.8204C116.681 12.8343 116.637 12.8384 116.594 12.8323H114.988C114.944 12.8384 114.9 12.8343 114.859 12.8204C114.817 12.8065 114.779 12.7831 114.748 12.752C114.717 12.721 114.694 12.6832 114.68 12.6416C114.666 12.6 114.662 12.5557 114.668 12.5122V11.6775C114.715 10.6932 114.415 9.7237 113.819 8.93866C113.55 8.60184 113.206 8.33252 112.815 8.15216C112.423 7.9718 111.995 7.88539 111.564 7.89982C111.167 7.88922 110.772 7.96543 110.406 8.12315C110.041 8.28087 109.715 8.51631 109.45 8.81306C108.855 9.53575 108.558 10.4574 108.617 11.3914C108.604 11.9934 108.73 12.5903 108.985 13.1359C109.26 13.6763 109.635 14.1599 110.09 14.5611C110.582 15.0094 111.309 15.5967 112.271 16.323C113.268 17.0335 114.225 17.7981 115.138 18.6135C115.737 19.1589 116.231 19.8093 116.595 20.5324C116.957 21.3202 117.133 22.1806 117.108 23.0471C117.183 24.5949 116.641 26.1091 115.603 27.2591C115.105 27.7837 114.502 28.1966 113.832 28.4704C113.163 28.7442 112.444 28.8727 111.721 28.8475ZM129.498 6.1379C130.217 6.11522 130.931 6.25797 131.587 6.55512C132.242 6.85228 132.82 7.29592 133.277 7.85185C134.283 9.12953 134.795 10.7272 134.718 12.3517C134.795 13.9516 134.295 15.5261 133.308 16.7879C132.86 17.3345 132.291 17.7704 131.647 18.0621C131.002 18.3537 130.299 18.4931 129.593 18.4696H126.294C126.276 18.4671 126.259 18.4687 126.242 18.4743C126.225 18.4799 126.21 18.4892 126.198 18.5017C126.185 18.5141 126.176 18.5293 126.17 18.546C126.165 18.5626 126.163 18.5804 126.166 18.5978V28.2709C126.172 28.3144 126.168 28.3587 126.154 28.4003C126.14 28.4419 126.116 28.4797 126.085 28.5107C126.054 28.5418 126.016 28.5652 125.975 28.5791C125.933 28.5931 125.889 28.5971 125.846 28.591H124.212C124.168 28.5971 124.124 28.5931 124.082 28.5791C124.041 28.5652 124.003 28.5418 123.972 28.5107C123.941 28.4797 123.918 28.4419 123.904 28.4003C123.89 28.3587 123.886 28.3144 123.892 28.2709V6.45801C123.886 6.41455 123.89 6.37027 123.904 6.32865C123.918 6.28703 123.941 6.24922 123.972 6.21818C124.003 6.18715 124.041 6.16375 124.082 6.14981C124.124 6.13588 124.168 6.13181 124.212 6.1379H129.498ZM129.21 16.6117C129.663 16.6216 130.113 16.5219 130.52 16.3212C130.927 16.1205 131.28 15.8246 131.548 15.4586C132.185 14.564 132.501 13.4806 132.445 12.384C132.499 11.2824 132.183 10.1944 131.548 9.29278C131.282 8.92313 130.93 8.62362 130.523 8.42002C130.116 8.21642 129.665 8.11483 129.21 8.12399H126.294C126.276 8.12151 126.259 8.12312 126.242 8.12869C126.225 8.13426 126.21 8.14363 126.198 8.15607C126.185 8.16851 126.176 8.18367 126.17 8.20036C126.165 8.21704 126.163 8.23479 126.166 8.25221V16.4835C126.163 16.5009 126.165 16.5187 126.17 16.5354C126.176 16.552 126.185 16.5672 126.198 16.5796C126.21 16.5921 126.225 16.6015 126.242 16.607C126.259 16.6126 126.276 16.6142 126.294 16.6117H129.21ZM149.165 28.591C149.081 28.5966 148.998 28.5699 148.933 28.5164C148.868 28.4629 148.826 28.3866 148.816 28.3032L148.015 24.3319C148.016 24.3131 148.012 24.2944 148.004 24.2776C147.995 24.2607 147.983 24.2464 147.967 24.236C147.934 24.214 147.895 24.2028 147.855 24.2037H142.057C142.017 24.2028 141.978 24.214 141.944 24.236C141.929 24.2464 141.916 24.2607 141.908 24.2776C141.899 24.2944 141.895 24.3131 141.896 24.3319L141.096 28.3032C141.094 28.3457 141.083 28.3873 141.064 28.4253C141.044 28.4634 141.018 28.497 140.985 28.5241C140.952 28.5512 140.914 28.5711 140.873 28.5826C140.832 28.5942 140.789 28.597 140.747 28.591H139.113C139.068 28.5943 139.024 28.5874 138.982 28.5707C138.941 28.5541 138.903 28.5282 138.873 28.4951C138.846 28.459 138.827 28.417 138.819 28.3725C138.811 28.328 138.813 28.2822 138.825 28.2386L143.63 6.45801C143.64 6.3746 143.682 6.29834 143.747 6.24484C143.812 6.19133 143.895 6.16463 143.978 6.17018H145.897C145.939 6.16418 145.982 6.16704 146.023 6.17857C146.064 6.19009 146.102 6.21003 146.135 6.23712C146.168 6.26421 146.195 6.29784 146.214 6.33588C146.233 6.37391 146.244 6.41551 146.246 6.45801L151.115 28.2386V28.3023C151.121 28.3414 151.117 28.3812 151.104 28.4187C151.092 28.4561 151.071 28.4902 151.043 28.5181C151.015 28.546 150.981 28.567 150.944 28.5795C150.906 28.592 150.866 28.5957 150.827 28.5902L149.165 28.591ZM142.311 22.2167C142.311 22.3022 142.343 22.3449 142.407 22.3449H147.466C147.53 22.3449 147.562 22.3022 147.562 22.2167L144.999 9.6286C144.977 9.56463 144.956 9.53265 144.935 9.53265C144.914 9.53265 144.893 9.56463 144.872 9.6286L142.311 22.2167ZM166.269 28.591C166.186 28.5977 166.102 28.576 166.033 28.5295C165.963 28.483 165.911 28.4143 165.885 28.3346L162.616 18.4373C162.61 18.4089 162.593 18.3838 162.57 18.3663C162.546 18.3487 162.517 18.3399 162.488 18.3414H159.701C159.684 18.3389 159.666 18.3405 159.65 18.3461C159.633 18.3516 159.618 18.361 159.605 18.3735C159.593 18.3859 159.583 18.4011 159.578 18.4177C159.572 18.4344 159.571 18.4522 159.573 18.4696V28.2709C159.579 28.3144 159.575 28.3587 159.561 28.4003C159.547 28.4419 159.524 28.4797 159.493 28.5107C159.462 28.5418 159.424 28.5652 159.382 28.5791C159.341 28.5931 159.297 28.5971 159.253 28.591H157.618C157.575 28.5971 157.531 28.5931 157.489 28.5791C157.448 28.5652 157.41 28.5418 157.379 28.5107C157.348 28.4797 157.324 28.4419 157.31 28.4003C157.296 28.3587 157.292 28.3144 157.298 28.2709V6.49029C157.292 6.44683 157.296 6.40254 157.31 6.36092C157.324 6.31931 157.348 6.28149 157.379 6.25046C157.41 6.21942 157.448 6.19602 157.489 6.18209C157.531 6.16816 157.575 6.16408 157.618 6.17018H162.903C163.622 6.1475 164.337 6.29024 164.993 6.58739C165.648 6.88455 166.226 7.32819 166.683 7.88412C167.686 9.15135 168.197 10.7381 168.124 12.3526C168.158 13.6078 167.848 14.8485 167.227 15.9401C166.679 16.9007 165.821 17.6463 164.793 18.0544C164.775 18.0563 164.757 18.0624 164.742 18.0721C164.727 18.0819 164.714 18.0951 164.705 18.1107C164.695 18.1262 164.69 18.1438 164.688 18.1619C164.687 18.1799 164.69 18.1981 164.697 18.2149L168.186 28.2404L168.218 28.3686C168.218 28.5181 168.122 28.5928 167.93 28.5928L166.269 28.591ZM159.703 8.15626C159.686 8.15379 159.668 8.1554 159.651 8.16096C159.635 8.16653 159.619 8.17591 159.607 8.18834C159.595 8.20078 159.585 8.21594 159.58 8.23263C159.574 8.24931 159.572 8.26707 159.575 8.28448V16.3876C159.572 16.405 159.574 16.4227 159.58 16.4394C159.585 16.4561 159.595 16.4713 159.607 16.4837C159.619 16.4961 159.635 16.5055 159.651 16.5111C159.668 16.5166 159.686 16.5183 159.703 16.5158H162.582C163.038 16.529 163.492 16.4331 163.904 16.2359C164.316 16.0386 164.675 15.7459 164.951 15.3819C165.586 14.5047 165.903 13.4368 165.848 12.3552C165.901 11.2687 165.585 10.1961 164.951 9.31197C164.678 8.94355 164.32 8.64641 163.907 8.44569C163.495 8.24497 163.04 8.14659 162.582 8.15888L159.703 8.15626ZM175.27 28.591C175.226 28.5971 175.182 28.5931 175.141 28.5791C175.099 28.5652 175.061 28.5418 175.03 28.5107C174.999 28.4797 174.976 28.4419 174.962 28.4003C174.948 28.3587 174.944 28.3144 174.95 28.2709V6.49029C174.944 6.44683 174.948 6.40254 174.962 6.36092C174.976 6.31931 174.999 6.28149 175.03 6.25046C175.061 6.21942 175.099 6.19602 175.141 6.18209C175.182 6.16816 175.226 6.16408 175.27 6.17018H176.904C176.947 6.16408 176.991 6.16816 177.033 6.18209C177.075 6.19602 177.112 6.21942 177.143 6.25046C177.175 6.28149 177.198 6.31931 177.212 6.36092C177.226 6.40254 177.23 6.44683 177.224 6.49029V16.8699C177.221 16.8952 177.225 16.9208 177.236 16.9437C177.248 16.9665 177.265 16.9854 177.287 16.9981C177.33 17.0196 177.362 16.9984 177.383 16.9345L183.565 6.39696C183.605 6.3304 183.661 6.275 183.729 6.23584C183.796 6.19668 183.872 6.175 183.95 6.17279H185.743C185.792 6.16625 185.842 6.17329 185.887 6.19313C185.932 6.21298 185.971 6.24486 185.999 6.28531C186.02 6.32922 186.027 6.37791 186.022 6.42595C186.016 6.47399 185.997 6.51951 185.967 6.55745L180.97 15.238C180.951 15.2656 180.938 15.2971 180.932 15.3303C180.927 15.3635 180.929 15.3975 180.938 15.4298L186.446 28.2064L186.478 28.3346C186.478 28.5056 186.382 28.591 186.19 28.591H184.365C184.286 28.5938 184.209 28.57 184.146 28.5235C184.082 28.4769 184.037 28.4104 184.016 28.3346L179.403 17.4447C179.382 17.3592 179.328 17.3592 179.243 17.4447L177.257 20.5193C177.229 20.5678 177.217 20.6242 177.225 20.6798V28.2683C177.231 28.3118 177.227 28.356 177.213 28.3977C177.199 28.4393 177.175 28.4771 177.144 28.5081C177.113 28.5392 177.076 28.5626 177.034 28.5765C176.992 28.5904 176.948 28.5945 176.905 28.5884L175.27 28.591Z" fill="black"/>
<path d="M56.8158 38.8599C57.2622 38.9365 57.6872 39.1075 58.0622 39.3614C58.2271 39.4895 58.3597 39.6544 58.4493 39.843C58.5388 40.0316 58.5828 40.2386 58.5777 40.4474C58.5809 40.6721 58.5313 40.8944 58.433 41.0964C58.3347 41.2985 58.1904 41.4747 58.0116 41.6109C57.4211 42.0199 56.7091 42.2162 55.9924 42.1674H52.8236V41.993C53.0224 42.0073 53.222 41.98 53.4097 41.9127C53.5028 41.8685 53.5788 41.795 53.626 41.7034C53.6818 41.4978 53.7027 41.2844 53.6879 41.0719V37.0247C53.7029 36.8105 53.682 36.5953 53.626 36.388C53.5794 36.2954 53.5024 36.2215 53.408 36.1786C53.2204 36.1133 53.0217 36.0866 52.8236 36.1001V35.9257H55.8136C56.3269 35.8969 56.8411 35.9617 57.3313 36.1167C57.6166 36.234 57.8613 36.4324 58.0352 36.6872C58.2032 36.9232 58.2945 37.2051 58.2969 37.4948C58.2972 37.7947 58.1801 38.0827 57.9706 38.2973C57.6456 38.5887 57.2456 38.7835 56.8158 38.8599ZM55.1411 38.736C55.4677 38.7536 55.7943 38.7034 56.1006 38.5886C56.2965 38.5002 56.4621 38.3561 56.5768 38.1743C56.6948 37.9673 56.7522 37.7312 56.7425 37.4931C56.7524 37.2561 56.6959 37.0211 56.5794 36.8145C56.4682 36.6363 56.3055 36.4961 56.1128 36.4124C55.7999 36.3033 55.4683 36.2579 55.1376 36.2789L55.1411 38.736ZM55.1411 39.0945V41.0954L55.1367 41.3257C55.1317 41.3935 55.1403 41.4616 55.162 41.5261C55.1837 41.5905 55.2181 41.6499 55.2632 41.7008C55.3141 41.7459 55.3735 41.7803 55.4379 41.802C55.5024 41.8237 55.5705 41.8323 55.6383 41.8272C55.8744 41.8296 56.1075 41.7735 56.3169 41.6641C56.5204 41.5588 56.6867 41.3935 56.7931 41.1905C56.9051 40.9771 56.9621 40.739 56.9588 40.498C56.9632 40.2228 56.8933 39.9516 56.7565 39.7129C56.633 39.4915 56.4362 39.32 56.2 39.228C55.858 39.1211 55.4998 39.0759 55.142 39.0945H55.1411ZM66.7279 35.9257V36.1001C66.5563 36.1145 66.3922 36.1768 66.2543 36.2798C65.966 36.5969 65.7216 36.9513 65.5277 37.3335L64.1749 39.5891V41.0981C64.1621 41.2995 64.1791 41.5017 64.2254 41.6982C64.2687 41.7863 64.3386 41.8587 64.4252 41.9049C64.5475 41.9692 64.6849 41.9993 64.8229 41.9921H65.1718V42.1665H61.6724V41.9921H61.9986C62.15 41.9994 62.3007 41.966 62.4347 41.8953C62.5209 41.8454 62.5874 41.7675 62.6231 41.6746C62.6697 41.4853 62.6868 41.2899 62.6737 41.0954V39.8508L61.2075 37.1765C61.0473 36.8382 60.8396 36.5245 60.5908 36.2449C60.4518 36.1453 60.2838 36.0944 60.1128 36.1001V35.9257H63.1029V36.1001H62.9694C62.838 36.0887 62.7061 36.116 62.59 36.1786C62.5599 36.1955 62.5344 36.2194 62.5156 36.2482C62.4968 36.2771 62.4852 36.3101 62.4818 36.3444C62.5578 36.6404 62.6821 36.9219 62.8499 37.1774L63.9751 39.2402L65.0977 37.3588C65.298 37.0854 65.4404 36.7741 65.5164 36.4438C65.5157 36.402 65.5044 36.3611 65.4835 36.3249C65.4626 36.2887 65.4327 36.2585 65.3969 36.2371C65.2208 36.1411 65.0225 36.0936 64.8221 36.0993V35.9257H66.7279ZM76.8546 35.9257V37.6178H76.6888C76.6285 37.3217 76.5182 37.0379 76.3626 36.7787C76.2364 36.6029 76.067 36.4626 75.8707 36.3714C75.6746 36.3039 75.4671 36.2757 75.2601 36.2885H74.7909V41.0998C74.7778 41.3008 74.7958 41.5026 74.8441 41.6982C74.889 41.7881 74.9614 41.8614 75.0508 41.9075C75.1812 41.9728 75.3264 42.0028 75.4721 41.9947H75.6788V42.1692H72.4149V41.9947H72.6216C72.773 42.0013 72.9234 41.9679 73.0577 41.8979C73.1439 41.848 73.2103 41.7701 73.2461 41.6772C73.2927 41.4879 73.3097 41.2926 73.2967 41.0981V36.2885H72.8458C72.5181 36.2593 72.1914 36.3546 71.9308 36.5554C71.6456 36.8413 71.467 37.2162 71.4249 37.6178H71.2504V35.9257H76.8546ZM80.8922 39.1643V41.0963C80.8791 41.2973 80.8971 41.4991 80.9454 41.6947C80.9903 41.7846 81.0627 41.8579 81.1521 41.904C81.2808 41.9688 81.4242 41.9989 81.5681 41.9912H81.7749V42.1657H78.5136V41.9912H78.7159C78.8673 41.9978 79.0177 41.9644 79.152 41.8944C79.2375 41.8449 79.3027 41.7667 79.3361 41.6737C79.3826 41.4844 79.3997 41.2891 79.3867 41.0946V36.9951C79.3993 36.7942 79.3822 36.5926 79.3361 36.3967C79.2924 36.3065 79.2204 36.233 79.1311 36.1874C79.0027 36.1227 78.8595 36.0926 78.7159 36.1001H78.5092V35.9257H81.7705V36.1001H81.5638C81.4124 36.0936 81.262 36.1269 81.1277 36.197C81.0415 36.2469 80.975 36.3247 80.9393 36.4176C80.8927 36.6069 80.8756 36.8023 80.8887 36.9968V38.7631H83.0946V36.9968C83.1071 36.7959 83.0901 36.5943 83.044 36.3984C82.9999 36.3079 82.9273 36.2343 82.8372 36.1891C82.7075 36.1244 82.5633 36.0943 82.4186 36.1019H82.2162V35.9257H85.4731V36.1001H85.2708C85.1194 36.0928 84.9688 36.1262 84.8347 36.197C84.7485 36.2469 84.682 36.3247 84.6463 36.4176C84.5997 36.6069 84.5827 36.8023 84.5957 36.9968V41.0963C84.5831 41.2972 84.6001 41.4988 84.6463 41.6947C84.6903 41.7852 84.763 41.8588 84.853 41.904C84.9827 41.9687 85.1269 41.9988 85.2717 41.9912H85.474V42.1657H82.2162V41.9912H82.4186C82.57 41.9986 82.7206 41.9651 82.8547 41.8944C82.9408 41.8445 83.0073 41.7666 83.0431 41.6737C83.0896 41.4844 83.1067 41.2891 83.0937 41.0946V39.1678L80.8922 39.1643ZM89.3319 36.2859V38.825H89.4558C89.6187 38.8397 89.7827 38.8136 89.933 38.749C90.0833 38.6845 90.2152 38.5835 90.3167 38.4552C90.5216 38.1237 90.6387 37.7455 90.6568 37.3562H90.8313V40.6218H90.6568C90.6344 40.3192 90.5557 40.0234 90.4248 39.7496C90.3391 39.5575 90.1951 39.3973 90.0131 39.2917C89.7976 39.2024 89.5649 39.1625 89.3319 39.1748V40.9323C89.3202 41.1432 89.3348 41.3548 89.3755 41.5621C89.4071 41.6415 89.4646 41.7079 89.5386 41.7505C89.6589 41.8081 89.7921 41.8333 89.925 41.8238H90.2975C90.796 41.8492 91.2887 41.7074 91.6974 41.4208C92.0783 41.1043 92.3444 40.6711 92.4545 40.1883H92.629L92.3481 42.1709H86.9525V41.9965H87.1592C87.3105 42.003 87.4609 41.9697 87.5953 41.8996C87.6808 41.8501 87.7459 41.7719 87.7793 41.679C87.8259 41.4897 87.8429 41.2943 87.8299 41.0998V37.0003C87.8364 36.8255 87.8288 36.6505 87.8073 36.4769C87.7808 36.3759 87.7189 36.2876 87.6328 36.2284C87.4914 36.1353 87.3239 36.09 87.1548 36.0993H86.9481V35.9257H92.1693V37.7748H91.9949C91.9475 37.4264 91.819 37.0939 91.6198 36.804C91.4403 36.5943 91.2026 36.4425 90.9368 36.3679C90.62 36.2981 90.2954 36.2702 89.9713 36.2851L89.3319 36.2859ZM103.418 35.9257V37.6178H103.252C103.192 37.3217 103.081 37.0379 102.926 36.7787C102.8 36.6029 102.63 36.4626 102.434 36.3714C102.238 36.3039 102.03 36.2757 101.823 36.2885H101.358V41.0998C101.345 41.3008 101.363 41.5026 101.412 41.6982C101.457 41.7881 101.529 41.8614 101.618 41.9075C101.749 41.9728 101.894 42.0028 102.04 41.9947H102.246V42.1692H98.9789V41.9947H99.1856C99.3369 42.0013 99.4874 41.9679 99.6217 41.8979C99.7078 41.848 99.7743 41.7701 99.8101 41.6772C99.8566 41.4879 99.8737 41.2926 99.8607 41.0981V36.2885H99.4097C99.082 36.2593 98.7554 36.3546 98.4948 36.5554C98.2108 36.8418 98.0335 37.2167 97.9924 37.6178H97.8179V35.9257H103.418ZM108.329 41.993V42.1674H105.068V41.993H105.275C105.426 41.9996 105.576 41.9662 105.711 41.8962C105.796 41.8466 105.861 41.7684 105.895 41.6755C105.941 41.4862 105.958 41.2908 105.945 41.0963V36.9968C105.958 36.7959 105.941 36.5943 105.895 36.3984C105.851 36.3082 105.779 36.2347 105.69 36.1891C105.561 36.1243 105.418 36.0942 105.274 36.1019H105.067V35.9257H108.328V36.1001H108.122C107.97 36.0936 107.82 36.1269 107.686 36.197C107.6 36.2473 107.535 36.3251 107.5 36.4176C107.453 36.6069 107.436 36.8023 107.449 36.9968V41.0963C107.435 41.2983 107.452 41.5013 107.5 41.6982C107.545 41.7881 107.617 41.8614 107.706 41.9075C107.835 41.9723 107.979 42.0024 108.123 41.9947L108.329 41.993ZM114.156 40.0383L115.849 35.9257H118.388V36.1001H118.186C118.032 36.0931 117.88 36.1265 117.744 36.197C117.661 36.2473 117.596 36.3232 117.56 36.4133C117.514 36.6011 117.497 36.795 117.51 36.9881V41.1007C117.497 41.3015 117.514 41.5031 117.56 41.699C117.604 41.7896 117.677 41.8632 117.767 41.9084C117.897 41.9731 118.041 42.0031 118.186 41.9956H118.388V42.17H115.131V41.9956H115.333C115.486 42.0026 115.639 41.9693 115.775 41.8988C115.859 41.8489 115.924 41.7729 115.96 41.6825C116.007 41.4932 116.024 41.2978 116.011 41.1033V36.4804L113.618 42.1674H113.507L111.076 36.5188V40.9114C111.07 41.1004 111.077 41.2896 111.099 41.4775C111.138 41.6298 111.231 41.763 111.36 41.8525C111.55 41.9636 111.769 42.0141 111.988 41.9973V42.1718H109.855V41.9973H109.919C110.051 42.0016 110.183 41.979 110.306 41.931C110.412 41.8931 110.506 41.8271 110.577 41.74C110.647 41.6393 110.696 41.5249 110.719 41.4042C110.726 41.3705 110.729 41.2141 110.729 40.9349V36.9881C110.741 36.7895 110.724 36.5902 110.678 36.3967C110.633 36.3072 110.561 36.2347 110.471 36.19C110.342 36.1253 110.198 36.0952 110.053 36.1028H109.855V35.9257H112.403L114.156 40.0383ZM122.246 36.2877V38.8268H122.37C122.533 38.841 122.697 38.8144 122.847 38.7494C122.997 38.6844 123.129 38.583 123.23 38.4543C123.435 38.1228 123.552 37.7446 123.57 37.3553H123.744V40.6209H123.57C123.547 40.3183 123.469 40.0225 123.338 39.7487C123.252 39.5566 123.108 39.3964 122.926 39.2908C122.711 39.2015 122.478 39.1616 122.245 39.1739V40.9315C122.233 41.1424 122.248 41.3539 122.289 41.5612C122.32 41.6406 122.378 41.707 122.452 41.7496C122.572 41.8072 122.705 41.8325 122.838 41.8229H123.21C123.709 41.849 124.203 41.7075 124.612 41.4208C124.993 41.1043 125.259 40.6711 125.369 40.1883H125.544L125.258 42.1674H119.867V41.993H120.074C120.225 41.9996 120.376 41.9662 120.51 41.8962C120.595 41.8466 120.661 41.7684 120.694 41.6755C120.741 41.4862 120.758 41.2908 120.745 41.0963V36.9968C120.751 36.822 120.744 36.647 120.722 36.4735C120.695 36.3724 120.634 36.2842 120.548 36.2249C120.406 36.1318 120.239 36.0866 120.07 36.0958H119.863V35.9257H125.084V37.7748H124.91C124.862 37.4264 124.734 37.0939 124.535 36.804C124.355 36.5943 124.117 36.4425 123.852 36.3679C123.535 36.2981 123.21 36.2702 122.886 36.2851L122.246 36.2877ZM131.509 35.7861L131.56 37.8655H131.371C131.303 37.3838 131.072 36.9399 130.716 36.6078C130.415 36.3097 130.01 36.1391 129.587 36.1315C129.316 36.1167 129.05 36.2063 128.843 36.3819C128.759 36.4526 128.69 36.5408 128.643 36.6405C128.596 36.7402 128.571 36.849 128.569 36.9593C128.567 37.0886 128.601 37.216 128.666 37.3274C128.78 37.4963 128.925 37.6414 129.094 37.7548C129.415 37.9536 129.749 38.1333 130.092 38.2929C130.648 38.5277 131.15 38.8734 131.568 39.3091C131.817 39.6195 131.95 40.0063 131.945 40.4038C131.946 40.6588 131.892 40.9111 131.787 41.1434C131.682 41.3757 131.527 41.5825 131.334 41.7496C130.911 42.1317 130.356 42.3338 129.786 42.3131C129.599 42.3139 129.412 42.2937 129.23 42.2529C129.005 42.1972 128.786 42.1231 128.574 42.0314C128.46 41.978 128.336 41.947 128.21 41.9398C128.118 41.9438 128.03 41.9758 127.957 42.0314C127.86 42.1028 127.785 42.2002 127.741 42.3122H127.566V39.9572H127.741C127.831 40.5324 128.105 41.0632 128.521 41.4705C128.853 41.7976 129.299 41.9849 129.765 41.9938C130.065 42.0092 130.359 41.9086 130.586 41.713C130.681 41.6327 130.758 41.5327 130.811 41.4199C130.864 41.3071 130.891 41.1842 130.892 41.0597C130.891 40.9094 130.851 40.762 130.775 40.6323C130.683 40.479 130.562 40.3453 130.419 40.2389C130.152 40.052 129.869 39.8897 129.573 39.7539C129.143 39.5564 128.735 39.3177 128.351 39.0413C128.118 38.8628 127.923 38.6391 127.778 38.3837C127.644 38.1383 127.576 37.8625 127.579 37.5829C127.575 37.3446 127.623 37.1083 127.717 36.8895C127.811 36.6706 127.951 36.4742 128.126 36.313C128.31 36.139 128.527 36.0032 128.764 35.9133C129.001 35.8235 129.253 35.7815 129.506 35.7896C129.705 35.789 129.903 35.8137 130.095 35.8629C130.276 35.9144 130.451 35.983 130.618 36.0679C130.753 36.1444 130.901 36.195 131.055 36.217C131.089 36.2188 131.124 36.2133 131.157 36.2006C131.189 36.188 131.218 36.1686 131.243 36.1437C131.312 36.0369 131.356 35.9158 131.372 35.7896L131.509 35.7861ZM140.558 35.8385C141 35.8028 141.445 35.8622 141.863 36.0126C142.281 36.1631 142.661 36.4011 142.98 36.7107C143.285 37.0118 143.526 37.3727 143.686 37.7708C143.847 38.1689 143.923 38.5958 143.911 39.0247C143.922 39.7798 143.676 40.5162 143.213 41.1129C142.909 41.5071 142.513 41.8218 142.061 42.03C141.608 42.2383 141.112 42.3339 140.614 42.3087C140.121 42.3356 139.629 42.2464 139.177 42.0482C138.724 41.8501 138.325 41.5485 138.011 41.1678C137.525 40.5625 137.267 39.8052 137.284 39.0291C137.273 38.598 137.351 38.1693 137.515 37.7701C137.678 37.371 137.923 37.0102 138.233 36.7107C138.536 36.4083 138.9 36.1741 139.301 36.0237C139.702 35.8733 140.13 35.8101 140.558 35.8385ZM140.612 36.1333C140.333 36.1332 140.061 36.216 139.829 36.3714C139.597 36.5267 139.417 36.7474 139.311 37.0055C139.036 37.6562 138.911 38.3609 138.947 39.0666C138.885 39.8942 139.082 40.7206 139.511 41.4313C139.635 41.6042 139.799 41.7435 139.991 41.8367C140.182 41.9299 140.393 41.974 140.605 41.9651C140.887 41.9752 141.164 41.8945 141.397 41.7348C141.698 41.4931 141.917 41.1649 142.026 40.7945C142.193 40.2486 142.269 39.679 142.251 39.1085C142.279 38.4827 142.201 37.8568 142.021 37.2567C141.916 36.9161 141.712 36.6144 141.435 36.3897C141.195 36.2202 140.907 36.1316 140.613 36.1368L140.612 36.1333ZM147.958 36.2851V38.8468H148.137C148.369 38.8554 148.6 38.8132 148.813 38.723C148.999 38.6299 149.153 38.4844 149.257 38.3043C149.393 38.0596 149.474 37.7881 149.494 37.5088H149.656V40.6445H149.494C149.499 40.4272 149.459 40.2113 149.377 40.01C149.295 39.8087 149.173 39.6263 149.018 39.474C148.763 39.2867 148.454 39.1875 148.137 39.1913H147.958V41.1007C147.945 41.3017 147.963 41.5035 148.011 41.699C148.056 41.7889 148.128 41.8622 148.218 41.9084C148.346 41.9732 148.49 42.0033 148.634 41.9956H148.84V42.17H145.579V41.9956H145.786C145.937 42.0022 146.087 41.9688 146.222 41.8988C146.307 41.8492 146.372 41.7711 146.406 41.6781C146.452 41.4888 146.469 41.2934 146.456 41.0989V36.9994C146.469 36.7986 146.452 36.5969 146.406 36.4011C146.362 36.3108 146.29 36.2373 146.201 36.1917C146.072 36.1269 145.929 36.0968 145.785 36.1045H145.578V35.9257H150.84V37.7146H150.652C150.64 37.3771 150.525 37.0512 150.323 36.7805C150.118 36.562 149.851 36.4126 149.557 36.3531C149.22 36.2949 148.878 36.2719 148.536 36.2842L147.958 36.2851ZM158.82 41.9938V42.1683H155.56V41.9938H155.767C155.918 42.0004 156.068 41.967 156.203 41.897C156.288 41.8475 156.353 41.7693 156.387 41.6763C156.433 41.487 156.451 41.2917 156.437 41.0972V36.9977C156.45 36.7968 156.433 36.5952 156.387 36.3993C156.343 36.3091 156.271 36.2356 156.182 36.19C156.053 36.1251 155.91 36.095 155.766 36.1028H155.56V35.9257H158.821V36.1001H158.613C158.461 36.0936 158.311 36.1269 158.177 36.197C158.091 36.2469 158.024 36.3247 157.988 36.4176C157.942 36.6069 157.925 36.8023 157.938 36.9968V41.0963C157.925 41.2973 157.943 41.4991 157.991 41.6947C158.036 41.7846 158.108 41.8579 158.198 41.904C158.326 41.9688 158.47 41.9989 158.614 41.9912L158.82 41.9938ZM162.504 35.9257L165.581 39.7941V37.1163C165.608 36.8527 165.552 36.5873 165.42 36.3574C165.325 36.2601 165.208 36.1858 165.08 36.1405C164.952 36.0951 164.814 36.0798 164.679 36.0958V35.9257H166.74V36.1001C166.557 36.1123 166.377 36.1566 166.209 36.231C166.112 36.2925 166.037 36.3845 165.997 36.4926C165.935 36.6944 165.91 36.9056 165.921 37.1163V42.3096H165.765L161.547 37.1163V41.0815C161.53 41.2133 161.543 41.3473 161.586 41.4733C161.629 41.5992 161.699 41.7137 161.793 41.8081C161.954 41.9328 162.153 41.9992 162.356 41.9965H162.504V42.1709H160.291V41.9965C160.549 42.0213 160.806 41.9453 161.009 41.7845C161.164 41.5844 161.236 41.3325 161.211 41.0806V36.6793L161.078 36.5136C160.984 36.3828 160.866 36.2719 160.729 36.1874C160.591 36.1275 160.443 36.0978 160.293 36.1001V35.9257H162.504ZM168.207 42.1674V41.993H168.414C168.558 42.0005 168.701 41.9704 168.83 41.9057C168.924 41.8522 168.998 41.7712 169.044 41.6737C169.083 41.4833 169.097 41.2886 169.085 41.0946V36.9951C169.098 36.7942 169.08 36.5926 169.034 36.3967C168.991 36.3064 168.919 36.2329 168.829 36.1874C168.701 36.1225 168.557 36.0925 168.413 36.1001H168.207V35.9257H170.999C171.613 35.9022 172.225 36.0055 172.797 36.2292C173.33 36.4573 173.773 36.853 174.06 37.3562C174.351 37.8783 174.499 38.4681 174.488 39.0657C174.492 39.4795 174.42 39.8904 174.276 40.2782C174.154 40.6156 173.968 40.9263 173.728 41.1931C173.507 41.4316 173.244 41.6279 172.952 41.7723C172.612 41.9334 172.25 42.0473 171.879 42.1107C171.586 42.1549 171.291 42.1733 170.995 42.1657L168.207 42.1674ZM170.585 36.2842V41.1513C170.575 41.3101 170.588 41.4695 170.622 41.6249C170.646 41.6828 170.69 41.7301 170.746 41.7583C170.858 41.8104 170.981 41.8341 171.104 41.8272C171.327 41.8404 171.55 41.7997 171.755 41.7086C171.959 41.6175 172.138 41.4787 172.277 41.3039C172.696 40.6505 172.889 39.8785 172.829 39.105C172.859 38.4444 172.73 37.7865 172.453 37.1861C172.292 36.8504 172.021 36.5807 171.684 36.4229C171.329 36.3083 170.956 36.2612 170.584 36.2842H170.585ZM179.459 41.9973V42.1718H176.198V41.9973H176.405C176.556 42.0039 176.706 41.9705 176.841 41.9005C176.926 41.851 176.991 41.7728 177.025 41.6798C177.071 41.4905 177.089 41.2952 177.075 41.1007V37.0012C177.088 36.8003 177.071 36.5987 177.025 36.4028C176.981 36.3126 176.909 36.2391 176.82 36.1935C176.691 36.1286 176.548 36.0985 176.404 36.1062H176.197V35.9257H179.459V36.1001H179.253C179.101 36.0936 178.951 36.1269 178.816 36.197C178.73 36.2469 178.664 36.3247 178.628 36.4176C178.582 36.6069 178.564 36.8023 178.577 36.9968V41.0963C178.564 41.2973 178.582 41.4991 178.631 41.6947C178.676 41.7846 178.748 41.8579 178.837 41.904C178.966 41.9689 179.11 41.9989 179.253 41.9912L179.459 41.9973ZM184.715 40.3915H182.512L182.25 41.0021C182.175 41.1594 182.132 41.3297 182.121 41.5036C182.117 41.5814 182.135 41.6588 182.172 41.7271C182.21 41.7954 182.265 41.8519 182.333 41.89C182.529 41.9624 182.735 41.9999 182.944 42.0008V42.1753H180.87V42.0008C181.08 41.974 181.275 41.8758 181.422 41.7226C181.645 41.437 181.825 41.1202 181.956 40.7823L184.187 35.8053H184.274L186.524 40.9158C186.647 41.2486 186.826 41.5581 187.053 41.8307C187.177 41.9338 187.333 41.9921 187.494 41.9965V42.1709H184.476V41.9965H184.6C184.776 42.0112 184.953 41.9761 185.111 41.8953C185.144 41.8712 185.17 41.8392 185.188 41.8022C185.206 41.7651 185.214 41.7243 185.212 41.6833C185.212 41.6241 185.202 41.5652 185.184 41.5089C185.177 41.4816 185.131 41.3653 185.046 41.16L184.715 40.3915ZM184.559 40.0514L183.63 37.9031L182.671 40.0514H184.559Z" fill="black"/>
</g>
</svg>
